<svg id="レイヤー_1" data-name="レイヤー 1" xmlns="http://www.w3.org/2000/svg" viewBox="0 0 1120 338"><defs><style>.cls-1{fill:#86a7db;}.cls-2{fill:#495c82;}.cls-13,.cls-2{fill-rule:evenodd;}.cls-3{fill:#e2e2e2;}.cls-4,.cls-5{fill:#ef3c3c;}.cls-5{stroke:#e86767;}.cls-12,.cls-5{stroke-miterlimit:10;stroke-width:5px;}.cls-6{fill:#5b7db2;}.cls-7{fill:#a7a7a8;}.cls-8{fill:#e5e5e5;}.cls-9{fill:#c5c7dd;}.cls-10{fill:#d3d3d3;}.cls-11{fill:#fcc529;}.cls-12{fill:none;stroke:#0ca3a3;}</style></defs><title>名称未設定-5</title><circle id="circle13" class="cls-1" cx="168.3" cy="169" r="165.73"/><path id="path15" class="cls-2" d="M204,81A169,169,0,1,1,35,250,169,169,0,0,1,204,81Zm-1.71,8.74c-.79,0-1.58,0-2.37,0C112.53,91,42,162.34,42,250s70.69,159.13,158.22,160.24A80.13,80.13,0,0,1,202.29,250a80.14,80.14,0,1,0,0-160.28Z" transform="translate(-35 -81)"/><path class="cls-3" d="M157.79,280.5l1.4,10.33,28.64.94q.24-5.86.47-11.74Z" transform="translate(-35 -81)"/><path class="cls-4" d="M154.5,287.55l37.56-.47q-3.76,18.3-7.52,36.61l14.09,59.15H152.15l12.21-58.68Z" transform="translate(-35 -81)"/><path class="cls-5" d="M194.17,380.26,159,290.6Z" transform="translate(-35 -81)"/><path class="cls-5" d="M176.33,378.38,173,290.6Z" transform="translate(-35 -81)"/><path class="cls-5" d="M160.37,377.91l25.35-86.84Z" transform="translate(-35 -81)"/><path class="cls-5" d="M159,365.24l33.33-1.41Z" transform="translate(-35 -81)"/><path class="cls-5" d="M160.37,350.14l28.16.08Z" transform="translate(-35 -81)"/><path class="cls-5" d="M163.89,331.84h0Z" transform="translate(-35 -81)"/><path class="cls-5" d="M159.43,301.86h0Z" transform="translate(-35 -81)"/><path class="cls-5" d="M162.79,312l22.93-.24Z" transform="translate(-35 -81)"/><ellipse class="cls-6" cx="138.04" cy="95.94" rx="48.47" ry="12.61"/><ellipse class="cls-6" cx="107.27" cy="117.1" rx="51.9" ry="21.16"/><polygon class="cls-7" points="168.65 215.04 170.81 230.53 193.53 230.53 193.53 216.45 168.65 215.04"/><path class="cls-8" d="M199.89,303.55h32.87l1.4,78.4-32.39.47Q200.84,343,199.89,303.55Z" transform="translate(-35 -81)"/><rect class="cls-9" x="170.53" y="227.71" width="21.59" height="10.33"/><rect class="cls-10" x="168.18" y="242.27" width="27.7" height="3.76"/><rect class="cls-10" x="168.18" y="254" width="27.7" height="3.76"/><rect class="cls-10" x="168.18" y="248.37" width="27.7" height="3.76"/><rect class="cls-10" x="168.18" y="260.11" width="27.7" height="3.76"/><rect class="cls-10" x="168.65" y="266.68" width="27.7" height="3.76"/><rect class="cls-10" x="169.12" y="273.25" width="27.7" height="3.76"/><rect class="cls-10" x="168.65" y="279.82" width="27.7" height="3.76"/><ellipse class="cls-6" cx="168.3" cy="108.55" rx="52.82" ry="17.01"/><path class="cls-11" d="M229.57,124.73a35.65,35.65,0,0,0-18.46-1.61,35.79,35.79,0,0,1-21.21,58.25,35.8,35.8,0,1,0,39.67-56.64Z" transform="translate(-35 -81)"/><path class="cls-12" d="M232,351.82a32.36,32.36,0,0,1-5.36-3.21A75.55,75.55,0,0,1,216.42,340a133,133,0,0,1-10.2-11.82c1.27,7.26,4.07,23.23,6.26,35.73,1.36,7.79,2.49,14.24,2.87,16.38l79.51.54,11.82-61.24C283.46,347.65,253.5,360.51,232,351.82Z" transform="translate(-35 -81)"/><path class="cls-12" d="M243.82,380.29Q232,362,220.19,343.76,232,362,243.82,380.29Z" transform="translate(-35 -81)"/><path class="cls-12" d="M273.37,347.52l21.22,33Z" transform="translate(-35 -81)"/><path class="cls-12" d="M258.06,353.16l21.49,27.4Z" transform="translate(-35 -81)"/><path class="cls-12" d="M284.08,340.77l14.81,21Z" transform="translate(-35 -81)"/><path class="cls-12" d="M294.59,332.75l7.52,10.74Z" transform="translate(-35 -81)"/><path class="cls-12" d="M210,348.6l18.53,32Z" transform="translate(-35 -81)"/><path class="cls-12" d="M301.84,343.22l-22.56,37.07Z" transform="translate(-35 -81)"/><path class="cls-12" d="M273.37,347.52l-29.55,32.77Z" transform="translate(-35 -81)"/><path class="cls-12" d="M242.75,355a89.14,89.14,0,0,0,18.88,23.52l33.23-46.08" transform="translate(-35 -81)"/><path class="cls-12" d="M215.35,380.29,242.75,355Z" transform="translate(-35 -81)"/><path class="cls-12" d="M220.19,343.22l-10.21,7Z" transform="translate(-35 -81)"/><path class="cls-12" d="M217,347.52" transform="translate(-35 -81)"/><path class="cls-12" d="M234.15,364.71" transform="translate(-35 -81)"/><path class="cls-12" d="M232,351.82l-18.8,16.12Z" transform="translate(-35 -81)"/><path id="path10" class="cls-13" d="M494.65,225.74v27.71a54.5,54.5,0,0,1-4.94,21.95,37.67,37.67,0,0,1-11.8,14.81c-5.48,4.38-12.89,6.86-22.77,6.86s-17.56-2.48-23.05-6.86a36.86,36.86,0,0,1-11.51-14.81,55.18,55.18,0,0,1-4.95-21.95V134.63A54.5,54.5,0,0,1,420.58,113a37.72,37.72,0,0,1,11.51-15.09c5.49-4.11,13.18-6.87,23.05-6.87s17.29,2.76,22.77,6.87A38.59,38.59,0,0,1,489.71,113a54.41,54.41,0,0,1,4.94,21.67v27.71H466.94V134.63c0-5.48-1.37-9.33-4.39-12.62-1.37-1.37-3.84-2.19-6.85-2.19-5.22,0-7.68,3.83-9.06,7.4a31.19,31.19,0,0,0-1.37,7.43V253.47c.28,5.75,1.93,9.6,4.67,12.6a7.8,7.8,0,0,0,5.76,2.2c6.31,0,8.78-3.29,10.15-7.41a19.42,19.42,0,0,0,1.09-7.41V225.74ZM581,258.4c-.81,14.54-5.2,24.69-14.81,32.65-4.94,4.12-11.8,6-20.85,6-17.85,0-26.62-9.88-31-19.76A54.78,54.78,0,0,1,510,257.57V182.11c.82-14.55,5.2-25.23,14.8-33.47,4.68-4.13,11.54-6,20.59-6,17.83,0,26.89,9.88,31.28,19.48A53.45,53.45,0,0,1,581,181.3v77.11ZM555,182.09c.28-5.75-.82-9.87-3.57-13.17a8.53,8.53,0,0,0-6-2.2c-5.22,0-7.42,3.57-8.51,7.68a17.16,17.16,0,0,0-.82,7.68v75.46c-.27,5.76,1.1,9.89,3.57,12.9a7.84,7.84,0,0,0,5.76,2.19c5.2,0,7.68-3.28,8.77-7.41a16.85,16.85,0,0,0,.82-7.68V182.08ZM670.28,294.87H642.57V285c-4.66,4.39-8.77,7.67-14,10.15a17.8,17.8,0,0,1-8,1.92c-7.68,0-12.9-4.4-16.2-10.16-3.57-5.48-5.2-12.89-5.2-19.2V171.94a38.6,38.6,0,0,1,5.2-19.48c3.3-5.49,8.52-9.89,16.2-9.89,5.19,0,10.71,3,14.81,6.05,2.47,1.91,4.67,3.84,7.13,6V93.18h27.71V294.87ZM642.57,177.7c0-4.39-4.12-9-8.23-9s-7.41,3.84-7.41,9v84.24c0,5.22,3.29,9.05,7.41,9.05s8.23-3.84,8.23-9.05Zm119.36,63.38v17.3c-.83,14.55-5.2,24.69-15.09,32.66-5,4.12-11.8,6-20.86,6-17.83,0-26.88-9.89-31.28-19.76a55.42,55.42,0,0,1-4.39-19.75V182.09c.82-14.55,5.48-25.23,15.37-33.46,4.68-4.14,11.53-6,20.59-6,17.83,0,26.89,9.89,31.28,19.48a53.55,53.55,0,0,1,4.38,19.23v43.63H716.1v32.65c.28,5.76,1.91,9.89,4.39,12.9a7.84,7.84,0,0,0,5.76,2.19c5.22,0,7.68-3.29,8.77-7.41a21.71,21.71,0,0,0,1.09-7.68V241.1h25.8v0ZM716.1,203.22h20V182.08c0-5.75-1.09-9.88-3.84-13.18a8.57,8.57,0,0,0-6-2.19c-5.22,0-7.42,3.57-8.78,7.68a30,30,0,0,0-1.37,7.67v21.16Zm119.72-29.91a24.81,24.81,0,0,0-7.68-1.09c-4.38,0-9.61.55-14,4.66-5.23,4.39-6,9.05-6,13.71V294.87H780.4V144.76h27.71v16.75c.28-1.91,2.19-6.59,6.59-11,4.39-4.12,11-8,21.12-8v30.74Zm12.1,121.56V93.18h23.33c27.43,0,42.26,5.48,50.21,20.86,7.68,15.37,8.78,40.61,8.78,80.12s-1.1,64.49-8.78,79.86c-8,15.37-22.78,20.86-50.21,20.86H847.92Zm29.65-29.63c10.14,0,15.91-1.11,18.93-11,1.37-4.66,2.48-11.8,2.75-21.4s.28-22.5.28-39,0-29.36-.28-39a92.4,92.4,0,0,0-2.75-21.4c-3-9.61-8.77-10.7-18.93-10.7V265.24Zm140.78-6.86c-.81,14.55-5.2,24.69-14.81,32.66-4.94,4.12-11.8,6-20.85,6-17.85,0-26.62-9.89-31-19.76a54.37,54.37,0,0,1-4.38-19.75V182.09c.82-14.55,5.21-25.23,14.8-33.46,4.68-4.14,11.54-6,20.59-6,17.83,0,26.89,9.89,31.28,19.48a53.55,53.55,0,0,1,4.38,19.23v77.09Zm-26.07-76.3c.28-5.75-.82-9.88-3.57-13.18a8.57,8.57,0,0,0-6-2.19c-5.23,0-7.42,3.57-8.51,7.68a17.1,17.1,0,0,0-.82,7.67v75.47c-.27,5.75,1.1,9.89,3.57,12.89a7.81,7.81,0,0,0,5.76,2.2c5.22,0,7.68-3.29,8.77-7.41a16.88,16.88,0,0,0,.82-7.68V182.06Zm44.52-88.91h27.71v27.71H1036.8Zm27.71,51.59V298.7c0,7.68,0,19.76-3.83,29.65-3.84,10.14-12.34,18.11-28,18.11a37.26,37.26,0,0,1-9.32-.83c-1.1-.28-1.91-.55-2.75-.82V319.3c.82.27,1.65.27,2.47.54a36.54,36.54,0,0,0,5.22.55c4.67,0,6.86-3.84,8-8.5a55.32,55.32,0,0,0,.55-7.14v-160ZM1155,258.38c-.81,14.55-5.21,24.69-14.8,32.66-5,4.12-11.81,6-20.86,6-17.85,0-26.62-9.89-31-19.76a55,55,0,0,1-4.38-19.75V182.09c.82-14.55,5.2-25.23,14.81-33.46,4.67-4.14,11.53-6,20.58-6,17.84,0,26.89,9.89,31.28,19.48a53.34,53.34,0,0,1,4.38,19.23v77.09Zm-26.07-76.3c.29-5.75-.82-9.88-3.57-13.18a8.54,8.54,0,0,0-6-2.19c-5.22,0-7.43,3.57-8.52,7.68a17.1,17.1,0,0,0-.82,7.67v75.47c-.27,5.75,1.11,9.89,3.57,12.89a7.85,7.85,0,0,0,5.77,2.2c5.21,0,7.68-3.29,8.78-7.41a16.88,16.88,0,0,0,.82-7.68V182.08Z" transform="translate(-35 -81)"/><path d="M708.33,368.38l20.18,34.79a3.09,3.09,0,0,1,0,3.49,3.42,3.42,0,0,1-3.11,1.77H713a9.35,9.35,0,0,1-8.91-5.37l-16.32-31a.11.11,0,0,0-.22,0v30.28a6.23,6.23,0,0,1-6.11,6.12h-9.24a6.25,6.25,0,0,1-6.12-6.12V336.18a6.23,6.23,0,0,1,6.12-6.12h9.24a6.22,6.22,0,0,1,6.11,6.12v27.05a.11.11,0,1,0,.22,0l15.14-27.8a9.57,9.57,0,0,1,9-5.37h12.46a3.31,3.31,0,0,1,3.06,1.77,3.16,3.16,0,0,1-.06,3.49l-19,31.56A1.17,1.17,0,0,0,708.33,368.38Z" transform="translate(-35 -81)"/><path d="M742,359.21q7.62-7.68,21.36-7.68t21.37,7.68q7.62,7.68,7.62,21.31t-7.62,21.31q-7.63,7.67-21.37,7.67T742,401.83q-7.62-7.68-7.62-21.31T742,359.21Zm14.81,33a7.07,7.07,0,0,0,6.55,3.39q4.51,0,6.55-3.39t2-11.64q0-8.26-2-11.65c-1.36-2.26-3.54-3.38-6.55-3.38s-5.19,1.12-6.55,3.38-2,6.14-2,11.65S755.49,389.91,756.85,392.16Z" transform="translate(-35 -81)"/><path d="M839.2,351.53A18.82,18.82,0,0,1,854.87,359q5.79,7.47,5.8,21.53,0,13.74-6.07,21.36a18.86,18.86,0,0,1-15.4,7.62,21,21,0,0,1-17-8.05.31.31,0,0,0-.21-.11.1.1,0,0,0-.11.11v.86a6.22,6.22,0,0,1-1.93,4.35,6.11,6.11,0,0,1-4.4,1.77h-6.77a6.23,6.23,0,0,1-6.11-6.12V334a6.23,6.23,0,0,1,6.11-6.12H817a6.23,6.23,0,0,1,6.12,6.12v23.84c0,.07,0,.1.11.1a.29.29,0,0,0,.21-.1Q830.61,351.53,839.2,351.53Zm-7.52,42.94a7.75,7.75,0,0,0,6.66-3.49q2.46-3.48,2.47-10.46,0-14-9.13-14a9.24,9.24,0,0,0-6.39,2.47,7.39,7.39,0,0,0-2.73,5.58v11.81a7.36,7.36,0,0,0,2.73,5.58A9.24,9.24,0,0,0,831.68,394.47Z" transform="translate(-35 -81)"/><path d="M895.66,351.53q27.27,0,27.38,28.77a5.67,5.67,0,0,1-1.94,4.35,6.57,6.57,0,0,1-4.61,1.77H888.36c-.64,0-.89.32-.75,1a8.9,8.9,0,0,0,4.24,6.33q3.27,1.83,10.25,1.83a55.34,55.34,0,0,0,10.74-1.29,4.54,4.54,0,0,1,4.08.91,4.65,4.65,0,0,1,1.82,3.81v1.72a7.87,7.87,0,0,1-1.66,4.88,6.47,6.47,0,0,1-4.24,2.63,72.21,72.21,0,0,1-14,1.29q-15.24,0-23.46-7.46t-8.21-21.52q0-14,7.3-21.47T895.66,351.53Zm7.62,23.62a.85.85,0,0,0,1-1q-.11-4.94-2.09-7.08c-1.33-1.43-3.31-2.15-6-2.15s-4.89.7-6.28,2.09-2.28,3.81-2.63,7.25a.76.76,0,0,0,.86.86Z" transform="translate(-35 -81)"/></svg>