<svg xmlns="http://www.w3.org/2000/svg" viewBox="0 0 500 500"><defs><style>.cls-1{fill:#86a7db;}.cls-2{fill:#495c82;fill-rule:evenodd;}.cls-3{fill:#e2e2e2;}.cls-4,.cls-5{fill:#ef3c3c;}.cls-5{stroke:#e86767;}.cls-12,.cls-5{stroke-miterlimit:10;stroke-width:5px;}.cls-6{fill:#5b7db2;}.cls-7{fill:#a7a7a8;}.cls-8{fill:#e5e5e5;}.cls-9{fill:#c5c7dd;}.cls-10{fill:#d3d3d3;}.cls-11{fill:#fcc529;}.cls-12{fill:none;stroke:#0ca3a3;}</style></defs><title>0</title><g id="レイヤー_1" data-name="レイヤー 1"><circle id="circle13" class="cls-1" cx="250.08" cy="250" r="219.66"/><path id="path15" class="cls-2" d="M251,26c123.71,0,224,100.29,224,224S374.71,474,251,474,27,373.71,27,250,127.29,26,251,26Zm-2.27,11.59c-1,0-2.09,0-3.14,0C129.76,39.31,36.28,133.81,36.28,250S130,460.94,246,462.41A106.21,106.21,0,0,1,248.73,250a106.22,106.22,0,1,0,0-212.43Z"/><path class="cls-3" d="M189.74,290.43l1.87,13.69,38,1.24q.3-7.77.62-15.55Z"/><path class="cls-4" d="M185.39,299.76l49.78-.62-10,48.53,18.67,78.4h-61.6l16.17-77.78Z"/><path class="cls-5" d="M238,422.65q-23.34-59.41-46.67-118.84Q214.63,363.23,238,422.65Z"/><path class="cls-5" d="M214.32,420.16,210,303.81Z"/><path class="cls-5" d="M193.17,419.54l33.6-115.11Z"/><path class="cls-5" d="M191.3,402.74l44.18-1.87Z"/><path class="cls-5" d="M193.17,382.72l37.33.11Z"/><path class="cls-5" d="M197.83,358.47h0Z"/><path class="cls-5" d="M191.92,318.74h0Z"/><path class="cls-5" d="M196.38,332.12l30.39-.31Z"/><ellipse class="cls-6" cx="209.97" cy="153.16" rx="64.25" ry="16.71"/><ellipse class="cls-6" cx="169.18" cy="181.21" rx="68.79" ry="28.05"/><polygon class="cls-7" points="250.53 311.02 253.4 331.55 283.51 331.55 283.51 312.89 250.53 311.02"/><path class="cls-8" d="M245.56,321h43.55L291,424.89l-42.94.62Q246.8,373.24,245.56,321Z"/><rect class="cls-9" x="253.02" y="327.82" width="28.62" height="13.69"/><rect class="cls-10" x="249.91" y="347.11" width="36.71" height="4.98"/><rect class="cls-10" x="249.91" y="362.66" width="36.71" height="4.98"/><rect class="cls-10" x="249.91" y="355.2" width="36.71" height="4.98"/><rect class="cls-10" x="249.91" y="370.75" width="36.71" height="4.98"/><rect class="cls-10" x="250.53" y="379.46" width="36.71" height="4.98"/><rect class="cls-10" x="251.16" y="388.18" width="36.71" height="4.98"/><rect class="cls-10" x="250.53" y="396.89" width="36.71" height="4.98"/><ellipse class="cls-6" cx="250.08" cy="169.87" rx="70.01" ry="22.55"/><path class="cls-11" d="M284.88,84a47.12,47.12,0,0,0-24.46-2.13A47.43,47.43,0,0,1,232.31,159,47.44,47.44,0,1,0,284.88,84Z"/><path class="cls-12" d="M288.12,385a41,41,0,0,1-7.11-4.26,100.37,100.37,0,0,1-13.54-11.4,175.28,175.28,0,0,1-13.53-15.67c1.68,9.62,5.39,30.79,8.3,47.35,1.81,10.33,3.3,18.88,3.8,21.72l105.39.71,15.66-81.17C356.31,379.42,316.6,396.47,288.12,385Z"/><path class="cls-12" d="M303.78,422.69l-31.33-48.42Z"/><path class="cls-12" d="M342.94,379.26l28.13,43.79Z"/><path class="cls-12" d="M322.65,386.73l28.48,36.32Z"/><path class="cls-12" d="M357.14,370.3l19.63,27.83Z"/><path class="cls-12" d="M371.07,359.67l10,14.25Z"/><path class="cls-12" d="M258.92,380.68l24.57,42.37Z"/><path class="cls-12" d="M380.68,373.56l-29.9,49.13Z"/><path class="cls-12" d="M342.94,379.26l-39.16,43.43Z"/><path class="cls-12" d="M302.36,389.22a117.75,117.75,0,0,0,25,31.17l44.05-61.07"/><path class="cls-12" d="M266,422.69l36.32-33.47Z"/><path class="cls-12" d="M272.45,373.56l-13.53,9.26Z"/><path class="cls-12" d="M288.12,385l-24.93,21.36Z"/></g></svg>