<svg xmlns="http://www.w3.org/2000/svg" viewBox="0 0 344.36 464.96"><defs><style>.cls-1{fill:#86a7db;}.cls-2{fill:#495c82;}.cls-13,.cls-2{fill-rule:evenodd;}.cls-3{fill:#e2e2e2;}.cls-4,.cls-5{fill:#ef3c3c;}.cls-5{stroke:#e86767;}.cls-12,.cls-5{stroke-miterlimit:10;stroke-width:5px;}.cls-6{fill:#5b7db2;}.cls-7{fill:#a7a7a8;}.cls-8{fill:#e5e5e5;}.cls-9{fill:#c5c7dd;}.cls-10{fill:#d3d3d3;}.cls-11{fill:#fcc529;}.cls-12{fill:none;stroke:#0ca3a3;}</style></defs><title>logo_500×500</title><g id="レイヤー_1" data-name="レイヤー 1"><circle id="circle13" class="cls-1" cx="171.24" cy="152.5" r="149.54"/><path id="path15" class="cls-2" d="M261.5,10A152.5,152.5,0,1,1,109,162.5,152.5,152.5,0,0,1,261.5,10ZM260,17.89c-.72,0-1.43,0-2.14,0a144.61,144.61,0,0,0,.27,289.19A72.31,72.31,0,0,1,260,162.51a72.31,72.31,0,1,0,0-144.62Z" transform="translate(-89.63 -10)"/><path class="cls-3" d="M219.8,190l1.27,9.32,25.84.85.42-10.59Z" transform="translate(-89.63 -10)"/><path class="cls-4" d="M216.83,196.38l33.89-.43-6.78,33,12.71,53.38H214.71q5.5-26.47,11-53Z" transform="translate(-89.63 -10)"/><path class="cls-5" d="M252.63,280q-15.88-40.46-31.78-80.91Q236.75,239.58,252.63,280Z" transform="translate(-89.63 -10)"/><path class="cls-5" d="M236.53,278.34l-3-79.21Z" transform="translate(-89.63 -10)"/><path class="cls-5" d="M222.13,277.92q11.43-39.18,22.87-78.37Q233.57,238.75,222.13,277.92Z" transform="translate(-89.63 -10)"/><path class="cls-5" d="M220.85,266.48l30.08-1.27Z" transform="translate(-89.63 -10)"/><path class="cls-5" d="M222.13,252.86l25.41.07Z" transform="translate(-89.63 -10)"/><path class="cls-5" d="M225.3,236.34h0Z" transform="translate(-89.63 -10)"/><path class="cls-5" d="M221.28,209.3h0Z" transform="translate(-89.63 -10)"/><path class="cls-5" d="M224.31,218.4l20.69-.21Z" transform="translate(-89.63 -10)"/><ellipse class="cls-6" cx="143.93" cy="86.57" rx="43.74" ry="11.38"/><ellipse class="cls-6" cx="116.16" cy="105.67" rx="46.83" ry="19.09"/><polygon class="cls-7" points="171.55 194.04 173.5 208.02 194 208.02 194 195.31 171.55 194.04"/><path class="cls-8" d="M257.79,210.82h29.66l1.27,70.74-29.23.43Q258.64,246.4,257.79,210.82Z" transform="translate(-89.63 -10)"/><rect class="cls-9" x="173.24" y="205.48" width="19.49" height="9.32"/><rect class="cls-10" x="171.13" y="218.61" width="24.99" height="3.39"/><rect class="cls-10" x="171.13" y="229.2" width="24.99" height="3.39"/><rect class="cls-10" x="171.13" y="224.12" width="24.99" height="3.39"/><rect class="cls-10" x="171.13" y="234.71" width="24.99" height="3.39"/><rect class="cls-10" x="171.55" y="240.64" width="24.99" height="3.39"/><rect class="cls-10" x="171.97" y="246.57" width="24.99" height="3.39"/><rect class="cls-10" x="171.55" y="252.5" width="24.99" height="3.39"/><ellipse class="cls-6" cx="171.24" cy="97.95" rx="47.66" ry="15.35"/><path class="cls-11" d="M284.57,49.46A32.16,32.16,0,0,0,267.91,48a32.29,32.29,0,0,1-19.13,52.56,32.3,32.3,0,1,0,35.79-51.11Z" transform="translate(-89.63 -10)"/><path class="cls-12" d="M286.77,254.37a29,29,0,0,1-4.84-2.89,68.62,68.62,0,0,1-9.22-7.77,120,120,0,0,1-9.21-10.66c1.15,6.54,3.67,20.95,5.65,32.23l2.59,14.79,71.75.48q5.33-27.63,10.66-55.26C333.2,250.61,306.16,262.22,286.77,254.37Z" transform="translate(-89.63 -10)"/><path class="cls-12" d="M297.43,280.07l-21.33-33Z" transform="translate(-89.63 -10)"/><path class="cls-12" d="M324.09,250.5l19.15,29.81Z" transform="translate(-89.63 -10)"/><path class="cls-12" d="M310.28,255.59l19.39,24.72Z" transform="translate(-89.63 -10)"/><path class="cls-12" d="M333.76,244.4l13.36,18.94Z" transform="translate(-89.63 -10)"/><path class="cls-12" d="M343.24,237.17l6.79,9.69Z" transform="translate(-89.63 -10)"/><path class="cls-12" d="M266.89,251.47l16.73,28.84Z" transform="translate(-89.63 -10)"/><path class="cls-12" d="M349.79,246.62l-20.36,33.45Z" transform="translate(-89.63 -10)"/><path class="cls-12" d="M324.09,250.5l-26.66,29.57Z" transform="translate(-89.63 -10)"/><path class="cls-12" d="M296.46,257.28a80.09,80.09,0,0,0,17,21.22l30-41.58" transform="translate(-89.63 -10)"/><path class="cls-12" d="M271.74,280.07l24.72-22.79Z" transform="translate(-89.63 -10)"/><path class="cls-12" d="M276.1,246.62l-9.21,6.3Z" transform="translate(-89.63 -10)"/><path class="cls-12" d="M273.19,250.5" transform="translate(-89.63 -10)"/><path class="cls-12" d="M288.71,266" transform="translate(-89.63 -10)"/><path class="cls-12" d="M286.77,254.37l-17,14.55Z" transform="translate(-89.63 -10)"/><path id="path10" class="cls-13" d="M126.44,389.38v12.9a25.31,25.31,0,0,1-2.31,10.22,17.55,17.55,0,0,1-5.49,6.91c-2.56,2-6,3.19-10.61,3.19s-8.18-1.16-10.73-3.19a17.19,17.19,0,0,1-5.36-6.91,25.48,25.48,0,0,1-2.31-10.22V346.94a25.23,25.23,0,0,1,2.31-10.09A16.19,16.19,0,0,1,108,326.62a17.22,17.22,0,0,1,10.61,3.2,18,18,0,0,1,5.49,7,25.44,25.44,0,0,1,2.31,10.09v12.91H113.53V346.94a8.09,8.09,0,0,0-2-5.88,4.56,4.56,0,0,0-3.2-1c-2.43,0-3.57,1.79-4.21,3.45a14.2,14.2,0,0,0-.64,3.46v55.34a8.79,8.79,0,0,0,2.17,5.87,3.61,3.61,0,0,0,2.68,1,4.45,4.45,0,0,0,4.73-3.45,9,9,0,0,0,.51-3.45v-12.9Zm40.22,15.21c-.38,6.77-2.42,11.5-6.9,15.2-2.3,1.92-5.49,2.82-9.71,2.82-8.31,0-12.4-4.61-14.44-9.21a25.64,25.64,0,0,1-2-9.2V369.05c.38-6.77,2.42-11.75,6.9-15.58,2.17-1.93,5.37-2.82,9.58-2.82,8.31,0,12.53,4.61,14.57,9.07a25,25,0,0,1,2,9v35.91Zm-12.14-35.54c.13-2.68-.38-4.6-1.66-6.14a4,4,0,0,0-2.81-1c-2.44,0-3.46,1.66-4,3.57a8,8,0,0,0-.38,3.58v35.15a8.39,8.39,0,0,0,1.66,6,3.66,3.66,0,0,0,2.69,1c2.42,0,3.57-1.53,4.08-3.45a8,8,0,0,0,.38-3.58V369Zm53.71,52.53h-12.9V417a24.81,24.81,0,0,1-6.51,4.73,8.31,8.31,0,0,1-3.71.89,8.47,8.47,0,0,1-7.54-4.73,17,17,0,0,1-2.43-8.94v-44.6a18,18,0,0,1,2.43-9.08,8.61,8.61,0,0,1,7.54-4.6c2.42,0,5,1.4,6.9,2.82,1.15.89,2.17,1.78,3.32,2.81V327.64h12.9v93.94ZM195.33,367c0-2-1.92-4.21-3.83-4.21S188,364.57,188,367v39.24c0,2.43,1.54,4.21,3.46,4.21a4.11,4.11,0,0,0,3.83-4.21Zm55.59,29.52v8.06c-.38,6.78-2.42,11.5-7,15.21-2.3,1.92-5.49,2.81-9.71,2.81-8.31,0-12.52-4.61-14.57-9.21a25.74,25.74,0,0,1-2.05-9.19V369.05c.39-6.78,2.56-11.75,7.16-15.59,2.18-1.92,5.37-2.81,9.59-2.81,8.31,0,12.52,4.6,14.57,9.07a24.9,24.9,0,0,1,2,8.95V389H229.57V404.2a9.91,9.91,0,0,0,2.05,6,3.65,3.65,0,0,0,2.68,1c2.43,0,3.58-1.53,4.09-3.45a10.18,10.18,0,0,0,.51-3.58v-7.67h12Zm-21.35-17.63h9.33V369c0-2.68-.5-4.6-1.78-6.14a4,4,0,0,0-2.82-1c-2.43,0-3.45,1.66-4.09,3.58a14.53,14.53,0,0,0-.64,3.57v9.86ZM285.33,365a11.26,11.26,0,0,0-3.57-.51,9,9,0,0,0-6.51,2.17,7.5,7.5,0,0,0-2.82,6.39v48.57H259.52V351.66h12.91v7.8a10.77,10.77,0,0,1,3.07-5.11,13.72,13.72,0,0,1,9.83-3.71V365ZM291,421.58V327.64h10.87c12.77,0,19.68,2.55,23.38,9.71s4.09,18.92,4.09,37.32-.51,30-4.09,37.19-10.61,9.72-23.38,9.72Zm13.81-13.81c4.72,0,7.41-.51,8.82-5.12a41.1,41.1,0,0,0,1.28-10c.13-4.47.13-10.48.13-18.15s0-13.67-.13-18.15a43.2,43.2,0,0,0-1.28-10c-1.4-4.47-4.09-5-8.82-5v66.34Zm65.57-3.19c-.38,6.78-2.42,11.5-6.9,15.21-2.3,1.92-5.49,2.81-9.71,2.81-8.31,0-12.4-4.61-14.44-9.21a25.32,25.32,0,0,1-2-9.19V369.05c.38-6.78,2.42-11.75,6.89-15.59,2.18-1.92,5.37-2.81,9.59-2.81,8.31,0,12.52,4.6,14.57,9.07a24.9,24.9,0,0,1,2,8.95v35.92ZM358.21,369c.13-2.68-.39-4.6-1.67-6.14a4,4,0,0,0-2.81-1c-2.43,0-3.46,1.67-4,3.58a7.93,7.93,0,0,0-.39,3.57v35.15a8.49,8.49,0,0,0,1.67,6,3.65,3.65,0,0,0,2.68,1c2.43,0,3.58-1.53,4.09-3.45a8,8,0,0,0,.38-3.58V369Zm20.73-41.41h12.91v12.91H378.94Zm12.91,24v71.7c0,3.57,0,9.2-1.79,13.81s-5.75,8.43-13,8.43a17.56,17.56,0,0,1-4.34-.38c-.51-.13-.89-.26-1.28-.38V433c.38.13.77.13,1.15.25a17.06,17.06,0,0,0,2.44.26c2.17,0,3.19-1.79,3.7-4a26.66,26.66,0,0,0,.25-3.32V351.66ZM434,404.58c-.37,6.78-2.42,11.5-6.89,15.21-2.3,1.92-5.5,2.81-9.71,2.81-8.32,0-12.4-4.61-14.45-9.21a25.53,25.53,0,0,1-2-9.19V369.05c.39-6.78,2.43-11.75,6.9-15.59,2.18-1.92,5.37-2.81,9.59-2.81,8.3,0,12.52,4.6,14.56,9.07a24.69,24.69,0,0,1,2,8.95v35.92ZM421.85,369c.13-2.68-.38-4.6-1.66-6.14a4,4,0,0,0-2.81-1c-2.43,0-3.46,1.67-4,3.58A8.08,8.08,0,0,0,413,369v35.15a8.53,8.53,0,0,0,1.66,6,3.66,3.66,0,0,0,2.69,1c2.43,0,3.58-1.53,4.09-3.45a8,8,0,0,0,.38-3.58V369Z" transform="translate(-89.63 -10)"/><path d="M226,455.81l9.4,16.2a1.47,1.47,0,0,1,0,1.63,1.6,1.6,0,0,1-1.45.82h-5.8A4.35,4.35,0,0,1,224,472l-7.6-14.45a0,0,0,0,0-.05-.05s-.05,0-.05.05v14.1a2.9,2.9,0,0,1-2.85,2.85h-4.3a2.9,2.9,0,0,1-2.85-2.85v-30.8a2.9,2.9,0,0,1,2.85-2.85h4.3a2.9,2.9,0,0,1,2.85,2.85v12.6s0,0,.05,0,.05,0,.05,0l7-13a4.47,4.47,0,0,1,4.2-2.5h5.8a1.54,1.54,0,0,1,1.42.83,1.47,1.47,0,0,1,0,1.62L226,455.11A.54.54,0,0,0,226,455.81Z" transform="translate(-89.63 -10)"/><path d="M241.66,451.54q3.54-3.57,10-3.58t9.95,3.58q3.54,3.57,3.55,9.92t-3.55,9.93Q258,475,251.61,475t-10-3.57q-3.56-3.57-3.55-9.93T241.66,451.54Zm6.9,15.35a3.75,3.75,0,0,0,6.1,0q.94-1.58,1-5.43t-1-5.42a3.73,3.73,0,0,0-6.1,0c-.64,1-.95,2.86-.95,5.42S247.92,465.84,248.56,466.89Z" transform="translate(-89.63 -10)"/><path d="M286.91,448a8.76,8.76,0,0,1,7.3,3.48q2.7,3.48,2.7,10t-2.83,10a8.76,8.76,0,0,1-7.17,3.55,9.79,9.79,0,0,1-7.9-3.75.19.19,0,0,0-.1,0s-.05,0-.05,0v.4a3,3,0,0,1-.9,2,2.84,2.84,0,0,1-2,.82h-3.15a2.9,2.9,0,0,1-2.85-2.85v-31.8a2.9,2.9,0,0,1,2.85-2.85h3.8a2.9,2.9,0,0,1,2.85,2.85v11.1s0,0,0,0a.14.14,0,0,0,.1,0A10.91,10.91,0,0,1,286.91,448Zm-3.5,20a3.62,3.62,0,0,0,3.1-1.62,8.51,8.51,0,0,0,1.15-4.88q0-6.49-4.25-6.5a4.33,4.33,0,0,0-3,1.15,3.45,3.45,0,0,0-1.27,2.6v5.5a3.41,3.41,0,0,0,1.27,2.6A4.29,4.29,0,0,0,283.41,468Z" transform="translate(-89.63 -10)"/><path d="M313.21,448q12.69,0,12.75,13.4a2.65,2.65,0,0,1-.9,2,3.07,3.07,0,0,1-2.15.82h-13.1c-.3,0-.42.15-.35.45a4.12,4.12,0,0,0,2,2.95,10.19,10.19,0,0,0,4.78.85,25.87,25.87,0,0,0,5-.6,2.15,2.15,0,0,1,1.9.43,2.17,2.17,0,0,1,.85,1.77v.8a3.66,3.66,0,0,1-.78,2.28,3,3,0,0,1-2,1.22,33.7,33.7,0,0,1-6.5.6q-7.11,0-10.93-3.47t-3.82-10q0-6.49,3.4-10T313.21,448Zm3.55,11a.4.4,0,0,0,.45-.45,5,5,0,0,0-1-3.3,3.62,3.62,0,0,0-2.77-1,4,4,0,0,0-2.93,1,5.49,5.49,0,0,0-1.22,3.37.35.35,0,0,0,.4.4Z" transform="translate(-89.63 -10)"/></g></svg>